<svg width="278" height="278" viewBox="0 0 278 278" fill="none" xmlns="http://www.w3.org/2000/svg">
<g clip-path="url(#clip0_600_1528)">
<path d="M278 0H0V278H278V0Z" fill="url(#paint0_radial_600_1528)"/>
<path d="M170.872 124.433C169.982 128.005 166.411 130.221 162.808 129.486L162.681 129.465C157.912 128.488 152.963 128.446 148.109 129.192C145.82 129.539 143.552 130.064 141.327 130.757C140.374 131.051 139.419 131.366 138.487 131.734C138.201 131.829 137.925 131.934 137.65 132.049C137.575 127.185 137.713 122.49 138.243 117.983C138.318 117.353 138.391 116.733 138.487 116.113C139.621 115.84 140.766 115.598 141.921 115.399C141.932 115.399 141.952 115.399 141.964 115.389C142.78 115.263 143.585 115.137 144.401 115.032C146.69 114.738 149.01 114.559 151.331 114.507C152.179 114.486 153.037 114.486 153.886 114.507C157.902 114.665 161.919 115.211 165.839 116.177C169.538 117.08 171.784 120.778 170.872 124.433Z" fill="url(#paint1_linear_600_1528)"/>
<path d="M186.737 57.456L186.112 57.162C183.155 55.765 180.061 54.735 176.945 54.074C174.773 53.601 172.59 53.307 170.439 53.17C165.183 52.834 160.085 53.412 155.295 54.641C149.148 56.248 143.448 58.853 138.361 62.383C135.542 64.326 132.914 66.553 130.487 69.032C123.991 75.744 119.519 83.728 116.647 91.712C113.765 99.737 112.345 107.847 111.846 115.809C111.571 120.389 111.582 124.875 111.772 129.244C111.188 129.706 110.616 130.189 110.044 130.673C107.014 133.31 104.311 136.178 101.779 139.213C99.2783 142.259 97.074 145.516 95.0604 148.877C93.068 152.249 91.3833 155.768 89.8781 159.35C86.9213 166.535 84.95 174.056 83.8797 181.683L83.5195 184.561C83.4237 185.517 83.3501 186.473 83.2653 187.439C83.0847 189.351 83.0111 191.326 83 193.395C83 195.338 83.0948 197.387 83.3712 199.498C83.6678 201.862 84.1763 204.298 85.0136 206.799C85.2577 207.471 85.512 208.144 85.7874 208.816C85.9992 209.32 86.2222 209.825 86.4764 210.329L86.9001 211.201L87.4196 212.115C87.7586 212.735 88.151 213.302 88.5324 213.88C88.7018 214.132 88.8713 214.374 89.062 214.615C90.5137 216.6 92.2408 218.386 94.2332 219.951C96.4698 221.684 99.0554 223.176 102.065 224.142C105.064 225.098 108.508 225.497 111.941 225.024C115.269 224.572 118.512 223.301 121.139 221.6C123.789 219.898 125.866 217.871 127.54 215.823C130.889 211.695 132.839 207.503 134.333 203.301C137.024 195.528 138.339 187.639 138.9 179.97C139.451 172.302 139.281 164.843 138.921 157.648C138.444 148.698 137.756 140.137 137.65 132.048C137.575 127.184 137.713 122.489 138.243 117.982C138.318 117.352 138.391 116.732 138.487 116.112C139.207 110.902 140.501 105.891 142.387 101.437C144.497 96.437 147.337 92.182 150.77 89.021C150.887 88.916 151.003 88.811 151.12 88.706C154.204 85.985 158.283 83.979 162.215 83.233C163.37 83.013 164.504 82.886 165.574 82.876C166.411 82.855 167.216 82.897 167.969 83.002C169.717 83.223 171.211 83.737 172.494 84.462C172.578 84.504 172.674 84.557 172.769 84.609C173.013 84.735 173.267 84.861 173.5 84.977C175.439 85.891 177.464 86.374 179.477 86.448C185.454 86.7 191.272 83.454 194.006 77.771C197.663 70.177 194.409 61.08 186.737 57.456ZM113.16 196.526C112.482 198.932 111.454 201.159 110.468 202.524C109.981 203.207 109.536 203.659 109.26 203.9C108.973 204.131 108.878 204.184 108.74 204.257C108.688 204.299 108.559 204.362 108.21 204.31C107.86 204.257 107.331 204.037 106.78 203.68C106.218 203.323 105.646 202.808 105.211 202.251C105.105 202.104 104.978 201.967 104.893 201.82L104.745 201.61L104.586 201.326C104.353 200.937 104.162 200.507 103.96 200.055C103.208 198.227 102.732 195.79 102.593 192.964C102.53 191.546 102.498 190.044 102.572 188.489L102.657 186.157L102.826 183.836C103.367 177.659 104.649 171.535 106.694 165.716C108.464 160.684 110.827 155.884 113.763 151.514C114.06 154.203 114.356 156.84 114.621 159.445C115.299 166.126 115.755 172.597 115.617 178.826C115.491 185.045 114.75 191.032 113.16 196.526Z" fill="url(#paint2_linear_600_1528)"/>
<path d="M106.781 203.68C107.332 204.037 107.861 204.258 108.211 204.31C108.211 204.31 107.438 204.636 106.113 204.982C101.885 206.106 92.0188 207.482 83.3712 199.499C83.0958 197.388 83 195.339 83 193.396C83 192.545 83.0212 191.715 83.0535 190.906C83.0847 189.719 83.1594 188.574 83.2653 187.44C83.3501 186.473 83.4247 185.517 83.5195 184.562L83.7213 182.965L83.8807 181.683C84.0814 180.233 84.3256 178.794 84.5909 177.355C85.7349 171.21 87.4842 165.17 89.8791 159.35C91.3843 155.768 93.069 152.249 95.0614 148.877C97.0751 145.516 99.2793 142.259 101.78 139.213C104.313 136.177 107.015 133.309 110.045 130.673C110.617 130.19 111.19 129.707 111.773 129.244C111.773 129.244 111.932 135.505 112.44 141.724C112.737 145.453 113.172 149.172 113.765 151.514C110.829 155.884 108.467 160.685 106.696 165.716C104.651 171.536 103.369 177.66 102.828 183.836L102.659 186.157L102.574 188.489C102.499 190.044 102.532 191.546 102.595 192.964C102.691 194.865 102.934 196.588 103.316 198.059C103.495 198.784 103.718 199.456 103.962 200.055C104.164 200.507 104.355 200.937 104.588 201.326L104.747 201.61L104.895 201.82C104.98 201.967 105.107 202.104 105.213 202.251C105.647 202.808 106.219 203.323 106.781 203.68Z" fill="url(#paint3_linear_600_1528)"/>
<path opacity="0.32" d="M144.401 115.032C143.086 119.087 141.719 124.591 141.328 130.757C140.088 131.135 138.858 131.566 137.651 132.049C137.576 127.185 137.714 122.49 138.244 117.983C138.319 117.353 138.392 116.733 138.488 116.113C139.622 115.84 140.767 115.598 141.922 115.399C142.747 115.263 143.575 115.137 144.401 115.032Z" fill="url(#paint4_linear_600_1528)"/>
<path opacity="0.31" d="M83.3712 199.499C83.0958 197.388 83 195.339 83 193.396C83 192.545 83.0212 191.715 83.0535 190.906C87.5356 195.791 94.8476 201.558 106.113 204.982C101.885 206.107 92.0188 207.483 83.3712 199.499Z" fill="url(#paint5_linear_600_1528)"/>
<path opacity="0.28" d="M106.781 203.68C107.332 204.037 107.861 204.258 108.211 204.31C108.211 204.31 107.438 204.636 106.113 204.982C101.885 206.106 92.0188 207.482 83.3712 199.499C83.0958 197.388 83 195.339 83 193.396C83 192.545 83.0212 191.715 83.0535 190.906C83.0847 189.719 83.1594 188.574 83.2653 187.44C83.3501 186.473 83.4247 185.517 83.5195 184.562L83.7213 182.965C86.434 187.881 90.9798 194.562 94.7739 192.388C100.422 189.174 94.7951 157.839 112.439 141.725C112.736 145.454 113.171 149.173 113.764 151.515C110.828 155.885 108.466 160.686 106.695 165.717C104.65 171.537 103.368 177.661 102.827 183.837L102.658 186.158L102.573 188.49C102.498 190.045 102.531 191.547 102.594 192.965C102.69 194.866 102.933 196.589 103.315 198.06C103.494 198.785 103.717 199.457 103.961 200.056C104.163 200.508 104.354 200.938 104.587 201.327L104.746 201.611L104.894 201.821C104.979 201.968 105.106 202.105 105.212 202.252C105.647 202.808 106.219 203.323 106.781 203.68Z" fill="url(#paint6_linear_600_1528)"/>
<path opacity="0.27" d="M165.574 82.877C164.504 82.888 163.37 83.014 162.215 83.234C158.135 84.011 153.885 86.144 150.77 89.022C147.337 92.184 144.496 96.438 142.387 101.438C140.501 105.892 139.208 110.903 138.487 116.113C138.392 116.733 138.318 117.353 138.243 117.983C137.713 122.49 137.575 127.185 137.65 132.049C137.756 140.137 138.445 148.699 138.921 157.649C139.281 164.845 139.451 172.303 138.9 179.971C138.338 187.639 137.024 195.528 134.333 203.302C132.839 207.504 130.889 211.695 127.54 215.824C125.866 217.872 123.789 219.9 121.139 221.601C118.512 223.303 115.269 224.574 111.941 225.025C108.507 225.498 105.063 225.098 102.065 224.143C99.0554 223.177 96.4698 221.685 94.2332 219.952C91.9977 218.198 90.1001 216.17 88.5324 213.88C88.151 213.302 87.7586 212.735 87.4196 212.115L86.9001 211.201L86.4764 210.329C86.2222 209.825 85.9992 209.321 85.7874 208.816C93.3323 213.69 108.412 221.043 120.567 211.999C137.523 199.393 123.301 125.336 132.574 100.997C140.888 79.175 158.707 81.448 165.574 82.877Z" fill="url(#paint7_linear_600_1528)"/>
<path opacity="0.17" d="M151.12 88.707C151.004 88.812 150.887 88.917 150.77 89.022C147.337 92.184 144.496 96.438 142.387 101.438C140.501 105.892 139.208 110.903 138.487 116.113C138.392 116.733 138.318 117.353 138.243 117.983C137.713 122.49 137.575 127.185 137.65 132.049C137.756 140.137 138.445 148.699 138.921 157.649C139.281 164.845 139.451 172.303 138.9 179.971C138.338 187.639 137.024 195.528 134.333 203.302C132.839 207.504 130.889 211.695 127.54 215.824C125.866 217.872 123.789 219.9 121.139 221.601C118.512 223.303 115.269 224.574 111.941 225.025C108.507 225.498 105.063 225.098 102.065 224.143C99.0554 223.177 96.4698 221.685 94.2332 219.952C92.2408 218.387 90.5137 216.601 89.062 214.616C88.9349 214.343 88.8179 214.08 88.7018 213.807C96.2468 218.681 111.327 226.034 123.482 216.99C140.437 204.385 126.216 130.327 135.489 105.988C139.346 95.882 145.227 90.945 151.12 88.707Z" fill="url(#paint8_linear_600_1528)"/>
<path opacity="0.3" d="M194.007 77.772C190.351 85.377 181.173 88.602 173.501 84.978C173.268 84.863 173.014 84.736 172.77 84.61C184.332 58.222 158.622 58.611 138.361 62.382C143.448 58.852 149.149 56.247 155.295 54.64C160.085 53.411 165.183 52.833 170.439 53.169C175.684 53.495 181.099 54.787 186.112 57.161L186.737 57.455C194.409 61.08 197.663 70.177 194.007 77.772Z" fill="url(#paint9_linear_600_1528)"/>
<path opacity="0.3" d="M194.007 77.7721C191.273 83.4551 185.455 86.7011 179.478 86.4491C191.431 70.3561 184.024 59.7251 176.945 54.0741C180.061 54.7361 183.156 55.7651 186.112 57.1621L186.737 57.4561C194.409 61.0801 197.663 70.1771 194.007 77.7721Z" fill="url(#paint10_linear_600_1528)"/>
<path d="M189.697 89.5995C183.609 83.5665 173.743 83.5665 167.657 89.5995C161.573 95.6315 161.573 105.412 167.657 111.443L214.846 158.22C220.932 164.252 230.8 164.253 236.883 158.22C242.971 152.188 242.969 142.407 236.883 136.373L208.969 108.772L189.697 89.5995Z" fill="url(#paint11_linear_600_1528)"/>
<path d="M167.657 205.024C173.743 211.056 183.609 211.055 189.697 205.024L236.883 158.249C242.842 152.343 243.216 143.099 237.506 137.043L237.265 136.787L236.95 136.476C236.928 136.452 236.908 136.427 236.883 136.403C236.86 136.378 236.83 136.357 236.805 136.332L208.969 108.772C223.958 123.629 203.835 147.316 203.835 147.316L203.838 147.314L167.658 183.179C161.573 189.211 161.573 198.993 167.657 205.024Z" fill="url(#paint12_linear_600_1528)"/>
<path d="M89.8827 189.023C95.9679 195.056 105.835 195.056 111.92 189.023C118.006 182.993 118.006 173.21 111.92 167.18L64.7318 120.403C58.6465 114.371 48.7793 114.37 42.6941 120.403C36.6078 126.434 36.6089 136.216 42.6951 142.249L70.6081 169.851L89.8827 189.023Z" fill="url(#paint13_linear_600_1528)"/>
<path d="M111.921 73.5991C105.835 67.5661 95.9679 67.5671 89.8827 73.5991L42.6951 120.375C36.736 126.281 36.3627 135.524 42.0726 141.58L42.3137 141.835L42.6275 142.146C42.6507 142.169 42.6709 142.195 42.6941 142.219C42.7183 142.245 42.7465 142.265 42.7727 142.29L70.6081 169.849C55.6201 154.992 75.743 131.306 75.743 131.306H75.739L111.921 95.4431C118.005 89.4121 118.007 79.6311 111.921 73.5991Z" fill="url(#paint14_linear_600_1528)"/>
</g>
<defs>
<radialGradient id="paint0_radial_600_1528" cx="0" cy="0" r="1" gradientUnits="userSpaceOnUse" gradientTransform="translate(139 139) scale(223.523)">
<stop offset="0.0572" stop-color="#48174D"/>
<stop offset="0.106" stop-color="#411648"/>
<stop offset="0.2635" stop-color="#2F133C"/>
<stop offset="0.431" stop-color="#241135"/>
<stop offset="0.6239" stop-color="#211033"/>
</radialGradient>
<linearGradient id="paint1_linear_600_1528" x1="74.1201" y1="145.382" x2="189.999" y2="111.219" gradientUnits="userSpaceOnUse">
<stop stop-color="#BAFF3F"/>
<stop offset="1" stop-color="#00EBCE"/>
</linearGradient>
<linearGradient id="paint2_linear_600_1528" x1="83.0005" y1="139.15" x2="195.507" y2="139.15" gradientUnits="userSpaceOnUse">
<stop stop-color="#2A41FF"/>
<stop offset="1" stop-color="#DF11FF"/>
</linearGradient>
<linearGradient id="paint3_linear_600_1528" x1="98.1107" y1="200.332" x2="98.8049" y2="127.5" gradientUnits="userSpaceOnUse">
<stop stop-color="#0012A5"/>
<stop offset="1" stop-color="#00E0CA"/>
</linearGradient>
<linearGradient id="paint4_linear_600_1528" x1="138.211" y1="114.054" x2="142.773" y2="129.701" gradientUnits="userSpaceOnUse">
<stop/>
<stop offset="1" stop-opacity="0"/>
</linearGradient>
<linearGradient id="paint5_linear_600_1528" x1="89.9416" y1="186.061" x2="95.9884" y2="206.802" gradientUnits="userSpaceOnUse">
<stop/>
<stop offset="1" stop-opacity="0"/>
</linearGradient>
<linearGradient id="paint6_linear_600_1528" x1="88.8858" y1="140.212" x2="106.743" y2="201.463" gradientUnits="userSpaceOnUse">
<stop/>
<stop offset="1" stop-opacity="0"/>
</linearGradient>
<linearGradient id="paint7_linear_600_1528" x1="84.2958" y1="250.22" x2="168.583" y2="79.4557" gradientUnits="userSpaceOnUse">
<stop stop-color="white"/>
<stop offset="1" stop-color="white" stop-opacity="0"/>
</linearGradient>
<linearGradient id="paint8_linear_600_1528" x1="87.5116" y1="249.216" x2="165.479" y2="91.2561" gradientUnits="userSpaceOnUse">
<stop stop-color="white"/>
<stop offset="1" stop-color="white" stop-opacity="0"/>
</linearGradient>
<linearGradient id="paint9_linear_600_1528" x1="158.901" y1="84.5783" x2="175.503" y2="50.9422" gradientUnits="userSpaceOnUse">
<stop stop-color="white"/>
<stop offset="1" stop-color="white" stop-opacity="0"/>
</linearGradient>
<linearGradient id="paint10_linear_600_1528" x1="173.402" y1="89.9611" x2="189.283" y2="57.786" gradientUnits="userSpaceOnUse">
<stop stop-color="white"/>
<stop offset="1" stop-color="white" stop-opacity="0"/>
</linearGradient>
<linearGradient id="paint11_linear_600_1528" x1="241.448" y1="123.911" x2="163.094" y2="123.911" gradientUnits="userSpaceOnUse">
<stop stop-color="#2A41FF"/>
<stop offset="1" stop-color="#DF11FF"/>
</linearGradient>
<linearGradient id="paint12_linear_600_1528" x1="225.418" y1="159.161" x2="115.786" y2="159.161" gradientUnits="userSpaceOnUse">
<stop stop-color="#DF11FF"/>
<stop offset="1" stop-color="#2A41FF"/>
</linearGradient>
<linearGradient id="paint13_linear_600_1528" x1="-45.6202" y1="127.454" x2="127.635" y2="127.454" gradientUnits="userSpaceOnUse">
<stop stop-color="#0012A5"/>
<stop offset="0.9999" stop-color="#00E0CA"/>
</linearGradient>
<linearGradient id="paint14_linear_600_1528" x1="54.1601" y1="119.463" x2="163.793" y2="119.463" gradientUnits="userSpaceOnUse">
<stop stop-color="#00E0CA"/>
<stop offset="1" stop-color="#0012A5"/>
</linearGradient>
<clipPath id="clip0_600_1528">
<rect width="278" height="278" rx="50" fill="white"/>
</clipPath>
</defs>
</svg>
